# xmcd CD database file
#
# Track frame offsets:
#	150
#	19837
#	40820
#	57248
#	79720
#	118393
#	141360
#	162758
#	182655
#	196217
#	228378
#	256841
#
# Disc length: 3673 seconds
#
# Revision: 0
# Processed by: cddbd v1.4PL0 Copyright (c) Steve Scherf et al.
# Submitted via: CDex 1.40Beta9
#
DISCID=9e0e570c
DTITLE=Eric Clapton and B.B. King - Riding With The King
DYEAR=1900
DGENRE=Blues
TTITLE0=Riding With The King
TTITLE1=Ten Long Years
TTITLE2=Key To The Highway
TTITLE3=Marry You
TTITLE4=Three O'Clock Blues
TTITLE5=Help The Poor
TTITLE6=I Wanna Be
TTITLE7=Worried Life Blues
TTITLE8=Days Of Old
TTITLE9=When My Heart Beats Like A Hammer
TTITLE10=Hold On I'm Coming
TTITLE11=Come Rain Or Come Shine
EXTD=ID3G: 0
EXTT0=
EXTT1=
EXTT2=
EXTT3=
EXTT4=
EXTT5=
EXTT6=
EXTT7=
EXTT8=
EXTT9=
EXTT10=
EXTT11=
PLAYORDER=
